<svg width="1440" height="207" viewBox="0 0 1440 207" fill="none" xmlns="http://www.w3.org/2000/svg">
<path fill-rule="evenodd" clip-rule="evenodd" d="M1028.29 170.834L1028.29 160.071L981.754 206.796L992.474 206.796L1028.29 170.834ZM1018.35 206.796L1028.29 196.82L1028.29 206.796L1018.35 206.796ZM955.877 206.796L1028.29 134.085L1028.29 123.322L945.158 206.796L955.877 206.796ZM919.28 206.796L1028.29 97.3353L1028.29 86.5724L908.561 206.796L919.28 206.796ZM882.683 206.796L1028.29 60.5861L1028.29 49.8228L871.964 206.796L882.683 206.796ZM846.087 206.796L1028.29 23.8373L1028.29 13.0736L835.367 206.796L846.087 206.796ZM822.429 193.802L1015.35 0.0812983L1004.63 0.0812978L822.429 183.039L822.429 193.802ZM822.429 157.053L978.75 0.0812967L968.031 0.0812962L822.429 146.29L822.429 157.053ZM822.429 120.304L942.153 0.081295L931.434 0.0812946L822.429 109.541L822.429 120.304ZM822.429 83.5544L905.556 0.0812934L894.837 0.081293L822.429 72.7914L822.429 83.5544ZM822.429 46.8055L868.96 0.0812918L858.24 0.0812914L822.429 36.0419L822.429 46.8055ZM822.429 10.0563L832.363 0.0812902L822.429 0.0812898L822.429 10.0563Z" fill="#F2994A"/>
<path fill-rule="evenodd" clip-rule="evenodd" d="M616.571 170.752L616.571 159.99L570.04 206.714L580.759 206.714L616.571 170.752ZM606.637 206.714L616.571 196.739L616.571 206.714L606.637 206.714ZM544.163 206.714L616.571 134.003L616.571 123.24L533.443 206.714L544.163 206.714ZM507.566 206.714L616.571 97.254L616.571 86.4911L496.847 206.714L507.566 206.714ZM470.969 206.714L616.571 60.5048L616.571 49.7415L460.25 206.714L470.969 206.714ZM434.372 206.714L616.571 23.756L616.571 12.9923L423.653 206.714L434.372 206.714ZM410.714 193.721L603.632 -5.6794e-07L592.913 -1.03844e-06L410.714 182.958L410.714 193.721ZM410.714 156.971L567.035 -2.1743e-06L556.316 -2.64479e-06L410.714 146.209L410.714 156.971ZM410.714 120.222L530.439 -3.78065e-06L519.72 -4.25115e-06L410.714 109.459L410.714 120.222ZM410.714 83.4731L493.842 -5.387e-06L483.123 -5.85751e-06L410.714 72.7101L410.714 83.4731ZM410.714 46.7242L457.245 -6.99336e-06L446.526 -7.46387e-06L410.714 35.9606L410.714 46.7242ZM410.714 9.97501L420.648 -8.59972e-06L410.714 -9.03577e-06L410.714 9.97501Z" fill="#F2994A"/>
<path fill-rule="evenodd" clip-rule="evenodd" d="M204.857 170.752L204.857 159.99L158.326 206.714L169.045 206.714L204.857 170.752ZM194.923 206.714L204.857 196.739L204.857 206.714L194.923 206.714ZM132.449 206.714L204.857 134.003L204.857 123.24L121.73 206.714L132.449 206.714ZM95.852 206.714L204.857 97.254L204.857 86.4911L85.1327 206.714L95.852 206.714ZM59.2551 206.714L204.857 60.5048L204.857 49.7415L48.5359 206.714L59.2551 206.714ZM22.6583 206.714L204.857 23.756L204.857 12.9923L11.9391 206.714L22.6583 206.714ZM-0.999719 193.721L191.918 -5.6794e-07L181.199 -1.03844e-06L-0.999718 182.958L-0.999719 193.721ZM-0.999717 156.971L155.322 -2.1743e-06L144.603 -2.64479e-06L-0.999716 146.209L-0.999717 156.971ZM-0.999715 120.222L118.725 -3.78065e-06L108.006 -4.25115e-06L-0.999715 109.459L-0.999715 120.222ZM-0.999714 83.4731L82.1282 -5.387e-06L71.4089 -5.85751e-06L-0.999713 72.7101L-0.999714 83.4731ZM-0.999712 46.7242L45.5313 -6.99336e-06L34.8121 -7.46387e-06L-0.999712 35.9606L-0.999712 46.7242ZM-0.999711 9.97501L8.93451 -8.59972e-06L-0.99971 -9.03577e-06L-0.999711 9.97501Z" fill="#F2994A"/>
<path fill-rule="evenodd" clip-rule="evenodd" d="M240.67 206.714L251.388 206.714L204.857 159.989L204.857 170.753L240.67 206.714ZM204.857 196.739L214.791 206.714L204.857 206.714L204.857 196.739ZM204.857 134.004L277.267 206.714L287.985 206.714L204.857 123.24L204.857 134.004ZM204.857 97.255L313.864 206.714L324.582 206.714L204.857 86.4911L204.857 97.255ZM204.857 60.5058L350.46 206.714L361.179 206.714L204.857 49.7419L204.857 60.5058ZM204.857 23.7566L387.057 206.714L397.776 206.714L204.857 12.9927L204.857 23.7566ZM217.797 5.93583e-05L410.714 193.721L410.714 182.958L228.515 6.02993e-05L217.797 5.93583e-05ZM254.394 6.25711e-05L410.714 156.972L410.714 146.209L265.112 6.3512e-05L254.394 6.25711e-05ZM290.991 6.57838e-05L410.714 120.223L410.714 109.459L301.709 6.67247e-05L290.991 6.57838e-05ZM327.587 6.89965e-05L410.714 83.4741L410.714 72.7102L338.306 6.99374e-05L327.587 6.89965e-05ZM364.184 7.22092e-05L410.714 46.7249L410.714 35.961L374.903 7.31502e-05L364.184 7.22092e-05ZM400.781 7.54219e-05L410.714 9.97565L410.714 7.62939e-05L400.781 7.54219e-05Z" fill="#F2994A"/>
<path fill-rule="evenodd" clip-rule="evenodd" d="M1064.1 206.877L1074.82 206.877L1028.29 160.152L1028.29 170.916L1064.1 206.877ZM1028.29 196.901L1038.22 206.877L1028.29 206.877L1028.29 196.901ZM1028.29 134.167L1100.7 206.877L1111.41 206.877L1028.29 123.403L1028.29 134.167ZM1028.29 97.4176L1137.29 206.877L1148.01 206.877L1028.29 86.6537L1028.29 97.4176ZM1028.29 60.6684L1173.89 206.877L1184.61 206.877L1028.29 49.9045L1028.29 60.6684ZM1028.29 23.9192L1210.49 206.877L1221.2 206.877L1028.29 13.1553L1028.29 23.9192ZM1041.23 0.162657L1234.14 193.884L1234.14 183.12L1051.94 0.162658L1041.23 0.162657ZM1077.82 0.16266L1234.14 157.135L1234.14 146.371L1088.54 0.162661L1077.82 0.16266ZM1114.42 0.162663L1234.14 120.386L1234.14 109.622L1125.14 0.162664L1114.42 0.162663ZM1151.02 0.162667L1234.14 83.6367L1234.14 72.8728L1161.73 0.162668L1151.02 0.162667ZM1187.61 0.16267L1234.14 46.8875L1234.14 36.1236L1198.33 0.162671L1187.61 0.16267ZM1224.21 0.162673L1234.14 10.1382L1234.14 0.162674L1224.21 0.162673Z" fill="#F2994A"/>
<path fill-rule="evenodd" clip-rule="evenodd" d="M652.384 206.714L663.103 206.714L616.572 159.989L616.572 170.753L652.384 206.714ZM616.572 196.739L626.506 206.714L616.572 206.714L616.572 196.739ZM616.572 134.004L688.981 206.714L699.699 206.714L616.572 123.24L616.572 134.004ZM616.572 97.255L725.578 206.714L736.296 206.714L616.572 86.4911L616.572 97.255ZM616.572 60.5058L762.175 206.714L772.893 206.714L616.572 49.7419L616.572 60.5058ZM616.572 23.7566L798.771 206.714L809.49 206.714L616.572 12.9927L616.572 23.7566ZM629.511 5.93583e-05L822.429 193.721L822.429 182.958L640.23 6.02993e-05L629.511 5.93583e-05ZM666.108 6.25711e-05L822.429 156.972L822.429 146.209L676.826 6.3512e-05L666.108 6.25711e-05ZM702.705 6.57838e-05L822.429 120.223L822.429 109.459L713.423 6.67247e-05L702.705 6.57838e-05ZM739.302 6.89965e-05L822.429 83.4741L822.429 72.7102L750.02 6.99374e-05L739.302 6.89965e-05ZM775.898 7.22092e-05L822.429 46.7249L822.429 35.961L786.617 7.31502e-05L775.898 7.22092e-05ZM812.495 7.54219e-05L822.429 9.97565L822.429 7.62939e-05L812.495 7.54219e-05Z" fill="#F2994A"/>
<path fill-rule="evenodd" clip-rule="evenodd" d="M1440 170.915L1440 160.152L1393.47 206.877L1404.19 206.877L1440 170.915ZM1430.07 206.877L1440 196.901L1440 206.877L1430.07 206.877ZM1367.59 206.877L1440 134.166L1440 123.403L1356.87 206.877L1367.59 206.877ZM1330.99 206.877L1440 97.4166L1440 86.6537L1320.28 206.877L1330.99 206.877ZM1294.4 206.877L1440 60.6674L1440 49.9041L1283.68 206.877L1294.4 206.877ZM1257.8 206.877L1440 23.9186L1440 13.1549L1247.08 206.877L1257.8 206.877ZM1234.14 193.883L1427.06 0.162597L1416.34 0.162597L1234.14 183.12L1234.14 193.883ZM1234.14 157.134L1390.46 0.162595L1379.75 0.162595L1234.14 146.371L1234.14 157.134ZM1234.14 120.385L1353.87 0.162594L1343.15 0.162593L1234.14 109.622L1234.14 120.385ZM1234.14 83.6356L1317.27 0.162592L1306.55 0.162592L1234.14 72.8727L1234.14 83.6356ZM1234.14 46.8868L1280.67 0.162591L1269.95 0.16259L1234.14 36.1232L1234.14 46.8868ZM1234.14 10.1376L1244.08 0.162589L1234.14 0.162589L1234.14 10.1376Z" fill="#F2994A"/>
</svg>
