<svg width="1440" height="1024" viewBox="0 0 1440 1024" fill="none" xmlns="http://www.w3.org/2000/svg">
<g clip-path="url(#clip0_719_1737)">
<rect width="1440" height="1024" fill="url(#paint0_linear_719_1737)"/>
<g opacity="0.12">
<line x1="204" y1="474.5" x2="1249" y2="474.5" stroke="white"/>
<line x1="88" y1="794.5" x2="1365" y2="794.5" stroke="white"/>
<line x1="88" y1="730.5" x2="1365" y2="730.5" stroke="white"/>
<line x1="204" y1="410.5" x2="1249" y2="410.5" stroke="white"/>
<line x1="204" y1="666.5" x2="1249" y2="666.5" stroke="white"/>
<line x1="88" y1="986.5" x2="1365" y2="986.5" stroke="white"/>
<line x1="88" y1="346.5" x2="1365" y2="346.5" stroke="white"/>
<line x1="204" y1="602.5" x2="1249" y2="602.5" stroke="white"/>
<line x1="88" y1="922.5" x2="1365" y2="922.5" stroke="white"/>
<line x1="204" y1="538.5" x2="1249" y2="538.5" stroke="white"/>
<line x1="88" y1="858.5" x2="1365" y2="858.5" stroke="white"/>
<line x1="7" y1="250.5" x2="1447" y2="250.5" stroke="white"/>
<line x1="7" y1="82.5" x2="1447" y2="82.5001" stroke="white"/>
<line x1="7" y1="2.5" x2="1447" y2="2.50013" stroke="white"/>
<line x1="88.5" y1="1013" x2="88.5001" y2="81.9999" stroke="white"/>
<line x1="668.5" y1="795" x2="668.5" y2="538" stroke="white"/>
<line x1="1016.5" y1="795" x2="1016.5" y2="538" stroke="white"/>
<line x1="436.5" y1="795" x2="436.5" y2="538" stroke="white"/>
<line x1="1364.5" y1="1013" x2="1364.5" y2="82" stroke="white"/>
<line x1="320.5" y1="923" x2="320.5" y2="412" stroke="white"/>
<line x1="1248.5" y1="1013" x2="1248.5" y2="250" stroke="white"/>
<line x1="204.5" y1="1013" x2="204.5" y2="250" stroke="white"/>
<line x1="784.5" y1="795" x2="784.5" y2="538" stroke="white"/>
<line x1="1132.5" y1="923" x2="1132.5" y2="412" stroke="white"/>
<g clip-path="url(#clip1_719_1737)">
<mask id="path-25-inside-1_719_1737" fill="white">
<path d="M1364 346H1483V731H1364V346Z"/>
</mask>
<line x1="1303.65" y1="391.124" x2="1499.13" y2="299.97" stroke="white"/>
<line x1="1303.65" y1="622.512" x2="1499.13" y2="531.359" stroke="white"/>
<line x1="1303.65" y1="506.818" x2="1499.13" y2="415.665" stroke="white"/>
<line x1="1303.65" y1="738.207" x2="1499.13" y2="647.053" stroke="white"/>
<line x1="1303.65" y1="407.651" x2="1499.13" y2="316.498" stroke="white"/>
<line x1="1303.65" y1="639.04" x2="1499.13" y2="547.887" stroke="white"/>
<line x1="1303.65" y1="523.346" x2="1499.13" y2="432.192" stroke="white"/>
<line x1="1303.65" y1="754.735" x2="1499.13" y2="663.581" stroke="white"/>
<line x1="1303.65" y1="424.179" x2="1499.13" y2="333.026" stroke="white"/>
<line x1="1303.65" y1="655.568" x2="1499.13" y2="564.414" stroke="white"/>
<line x1="1303.65" y1="539.874" x2="1499.13" y2="448.72" stroke="white"/>
<line x1="1303.65" y1="771.262" x2="1499.13" y2="680.109" stroke="white"/>
<line x1="1303.65" y1="440.707" x2="1499.13" y2="349.553" stroke="white"/>
<line x1="1303.65" y1="672.096" x2="1499.13" y2="580.942" stroke="white"/>
<line x1="1303.65" y1="556.401" x2="1499.13" y2="465.248" stroke="white"/>
<line x1="1303.65" y1="787.79" x2="1499.13" y2="696.637" stroke="white"/>
<line x1="1303.65" y1="457.235" x2="1499.13" y2="366.081" stroke="white"/>
<line x1="1303.65" y1="688.624" x2="1499.13" y2="597.47" stroke="white"/>
<line x1="1303.65" y1="572.929" x2="1499.13" y2="481.776" stroke="white"/>
<line x1="1303.65" y1="804.318" x2="1499.13" y2="713.164" stroke="white"/>
<line x1="1303.65" y1="473.763" x2="1499.13" y2="382.609" stroke="white"/>
<line x1="1303.65" y1="705.151" x2="1499.13" y2="613.998" stroke="white"/>
<line x1="1303.65" y1="589.457" x2="1499.13" y2="498.303" stroke="white"/>
<line x1="1303.65" y1="820.846" x2="1499.13" y2="729.692" stroke="white"/>
<line x1="1303.65" y1="490.29" x2="1499.13" y2="399.137" stroke="white"/>
<line x1="1303.65" y1="721.679" x2="1499.13" y2="630.526" stroke="white"/>
<line x1="1303.65" y1="605.985" x2="1499.13" y2="514.831" stroke="white"/>
</g>
<path d="M1364 347H1483V345H1364V347ZM1483 730H1364V732H1483V730Z" fill="white" mask="url(#path-25-inside-1_719_1737)"/>
<g clip-path="url(#clip2_719_1737)">
<mask id="path-54-inside-2_719_1737" fill="white">
<path d="M-30 346H89V731H-30V346Z"/>
</mask>
<line x1="-90.35" y1="391.124" x2="105.129" y2="299.97" stroke="white"/>
<line x1="-90.35" y1="622.512" x2="105.129" y2="531.359" stroke="white"/>
<line x1="-90.35" y1="506.818" x2="105.129" y2="415.665" stroke="white"/>
<line x1="-90.35" y1="738.207" x2="105.129" y2="647.053" stroke="white"/>
<line x1="-90.35" y1="407.651" x2="105.129" y2="316.498" stroke="white"/>
<line x1="-90.35" y1="639.04" x2="105.129" y2="547.887" stroke="white"/>
<line x1="-90.35" y1="523.346" x2="105.129" y2="432.192" stroke="white"/>
<line x1="-90.35" y1="754.735" x2="105.129" y2="663.581" stroke="white"/>
<line x1="-90.35" y1="424.179" x2="105.129" y2="333.026" stroke="white"/>
<line x1="-90.35" y1="655.568" x2="105.129" y2="564.414" stroke="white"/>
<line x1="-90.35" y1="539.874" x2="105.129" y2="448.72" stroke="white"/>
<line x1="-90.35" y1="771.262" x2="105.129" y2="680.109" stroke="white"/>
<line x1="-90.35" y1="440.707" x2="105.129" y2="349.553" stroke="white"/>
<line x1="-90.35" y1="672.096" x2="105.129" y2="580.942" stroke="white"/>
<line x1="-90.35" y1="556.401" x2="105.129" y2="465.248" stroke="white"/>
<line x1="-90.35" y1="787.79" x2="105.129" y2="696.637" stroke="white"/>
<line x1="-90.35" y1="457.235" x2="105.129" y2="366.081" stroke="white"/>
<line x1="-90.35" y1="688.624" x2="105.129" y2="597.47" stroke="white"/>
<line x1="-90.35" y1="572.929" x2="105.129" y2="481.776" stroke="white"/>
<line x1="-90.35" y1="804.318" x2="105.129" y2="713.164" stroke="white"/>
<line x1="-90.35" y1="473.763" x2="105.129" y2="382.609" stroke="white"/>
<line x1="-90.35" y1="705.151" x2="105.129" y2="613.998" stroke="white"/>
<line x1="-90.35" y1="589.457" x2="105.129" y2="498.303" stroke="white"/>
<line x1="-90.35" y1="820.846" x2="105.129" y2="729.692" stroke="white"/>
<line x1="-90.35" y1="490.29" x2="105.129" y2="399.137" stroke="white"/>
<line x1="-90.35" y1="721.679" x2="105.129" y2="630.526" stroke="white"/>
<line x1="-90.35" y1="605.985" x2="105.129" y2="514.831" stroke="white"/>
</g>
<path d="M-30 347H89V345H-30V347ZM89 730H-30V732H89V730Z" fill="white" mask="url(#path-54-inside-2_719_1737)"/>
</g>
</g>
<defs>
<linearGradient id="paint0_linear_719_1737" x1="720" y1="842" x2="731" y2="-8.1331e-07" gradientUnits="userSpaceOnUse">
<stop stop-color="#082832"/>
<stop offset="1" stop-color="#187A98"/>
</linearGradient>
<clipPath id="clip0_719_1737">
<rect width="1440" height="1024" fill="white"/>
</clipPath>
<clipPath id="clip1_719_1737">
<path d="M1364 346H1483V731H1364V346Z" fill="white"/>
</clipPath>
<clipPath id="clip2_719_1737">
<path d="M-30 346H89V731H-30V346Z" fill="white"/>
</clipPath>
</defs>
</svg>
