<svg width="170" height="187" viewBox="0 0 170 187" fill="none" xmlns="http://www.w3.org/2000/svg">
<path d="M113.146 44.7586C113.266 43.7471 114.734 43.7471 114.854 44.7586L115.861 53.2438C117.161 64.2006 125.799 72.8392 136.756 74.1392L145.241 75.146C146.253 75.2662 146.253 76.7339 145.241 76.854L136.756 77.8608C125.799 79.1608 117.161 87.7994 115.861 98.7561L114.854 107.241C114.734 108.253 113.266 108.253 113.146 107.241L112.139 98.7561C110.839 87.7994 102.201 79.1608 91.2438 77.8608L82.7586 76.854C81.7471 76.7339 81.7471 75.2662 82.7586 75.146L91.2438 74.1392C102.201 72.8392 110.839 64.2006 112.139 53.2438L113.146 44.7586Z" fill="#F2994A" fill-opacity="0.49"/>
<g filter="url(#filter0_d_814_105)">
<path d="M51.9796 30.4623C52.0528 29.8459 52.9472 29.8459 53.0204 30.4623L53.6339 35.633C54.4261 42.3097 59.6903 47.5739 66.367 48.3661L71.5377 48.9796C72.1541 49.0528 72.1541 49.9472 71.5377 50.0204L66.367 50.6339C59.6903 51.4261 54.4261 56.6903 53.6339 63.367L53.0204 68.5377C52.9472 69.1541 52.0528 69.1541 51.9796 68.5377L51.3661 63.367C50.5739 56.6903 45.3097 51.4261 38.633 50.6339L33.4623 50.0204C32.8459 49.9472 32.8459 49.0528 33.4623 48.9796L38.633 48.3661C45.3097 47.5739 50.5739 42.3097 51.3661 35.633L51.9796 30.4623Z" fill="#F2994A" fill-opacity="0.7" shape-rendering="crispEdges"/>
<path d="M51.9796 30.4623C52.0528 29.8459 52.9472 29.8459 53.0204 30.4623L53.6339 35.633C54.4261 42.3097 59.6903 47.5739 66.367 48.3661L71.5377 48.9796C72.1541 49.0528 72.1541 49.9472 71.5377 50.0204L66.367 50.6339C59.6903 51.4261 54.4261 56.6903 53.6339 63.367L53.0204 68.5377C52.9472 69.1541 52.0528 69.1541 51.9796 68.5377L51.3661 63.367C50.5739 56.6903 45.3097 51.4261 38.633 50.6339L33.4623 50.0204C32.8459 49.9472 32.8459 49.0528 33.4623 48.9796L38.633 48.3661C45.3097 47.5739 50.5739 42.3097 51.3661 35.633L51.9796 30.4623Z" fill="#F2994A" fill-opacity="0.7" shape-rendering="crispEdges"/>
</g>
<g filter="url(#filter1_d_814_105)">
<path d="M120.493 121.45C120.564 120.85 121.436 120.85 121.507 121.45L122.105 126.489C122.877 132.994 128.006 138.123 134.511 138.895L139.55 139.493C140.15 139.564 140.15 140.436 139.55 140.507L134.511 141.105C128.006 141.877 122.877 147.006 122.105 153.511L121.507 158.55C121.436 159.15 120.564 159.15 120.493 158.55L119.895 153.511C119.123 147.006 113.994 141.877 107.489 141.105L102.45 140.507C101.85 140.436 101.85 139.564 102.45 139.493L107.489 138.895C113.994 138.123 119.123 132.994 119.895 126.489L120.493 121.45Z" fill="#F2994A" fill-opacity="0.7" shape-rendering="crispEdges"/>
<path d="M120.493 121.45C120.564 120.85 121.436 120.85 121.507 121.45L122.105 126.489C122.877 132.994 128.006 138.123 134.511 138.895L139.55 139.493C140.15 139.564 140.15 140.436 139.55 140.507L134.511 141.105C128.006 141.877 122.877 147.006 122.105 153.511L121.507 158.55C121.436 159.15 120.564 159.15 120.493 158.55L119.895 153.511C119.123 147.006 113.994 141.877 107.489 141.105L102.45 140.507C101.85 140.436 101.85 139.564 102.45 139.493L107.489 138.895C113.994 138.123 119.123 132.994 119.895 126.489L120.493 121.45Z" fill="#F2994A" fill-opacity="0.7" shape-rendering="crispEdges"/>
</g>
<g filter="url(#filter2_d_814_105)">
<path d="M74.2858 44.0786C74.4566 42.6405 76.5434 42.6405 76.7142 44.0786L78.1458 56.1436C79.9943 71.7227 92.2773 84.0057 107.856 85.8542L119.921 87.2858C121.36 87.4566 121.36 89.5434 119.921 89.7142L107.856 91.1458C92.2773 92.9943 79.9943 105.277 78.1458 120.856L76.7142 132.921C76.5434 134.36 74.4566 134.36 74.2858 132.921L72.8542 120.856C71.0057 105.277 58.7227 92.9943 43.1436 91.1458L31.0786 89.7142C29.6405 89.5434 29.6405 87.4566 31.0786 87.2858L43.1436 85.8542C58.7227 84.0057 71.0057 71.7227 72.8542 56.1436L74.2858 44.0786Z" fill="#F2994A"/>
</g>
<defs>
<filter id="filter0_d_814_105" x="3" y="0" width="99" height="99" filterUnits="userSpaceOnUse" color-interpolation-filters="sRGB">
<feFlood flood-opacity="0" result="BackgroundImageFix"/>
<feColorMatrix in="SourceAlpha" type="matrix" values="0 0 0 0 0 0 0 0 0 0 0 0 0 0 0 0 0 0 127 0" result="hardAlpha"/>
<feOffset/>
<feGaussianBlur stdDeviation="15"/>
<feComposite in2="hardAlpha" operator="out"/>
<feColorMatrix type="matrix" values="0 0 0 0 0.94902 0 0 0 0 0.6 0 0 0 0 0.290196 0 0 0 1 0"/>
<feBlend mode="normal" in2="BackgroundImageFix" result="effect1_dropShadow_814_105"/>
<feBlend mode="normal" in="SourceGraphic" in2="effect1_dropShadow_814_105" result="shape"/>
</filter>
<filter id="filter1_d_814_105" x="72" y="91" width="98" height="98" filterUnits="userSpaceOnUse" color-interpolation-filters="sRGB">
<feFlood flood-opacity="0" result="BackgroundImageFix"/>
<feColorMatrix in="SourceAlpha" type="matrix" values="0 0 0 0 0 0 0 0 0 0 0 0 0 0 0 0 0 0 127 0" result="hardAlpha"/>
<feOffset/>
<feGaussianBlur stdDeviation="15"/>
<feComposite in2="hardAlpha" operator="out"/>
<feColorMatrix type="matrix" values="0 0 0 0 0.94902 0 0 0 0 0.6 0 0 0 0 0.290196 0 0 0 1 0"/>
<feBlend mode="normal" in2="BackgroundImageFix" result="effect1_dropShadow_814_105"/>
<feBlend mode="normal" in="SourceGraphic" in2="effect1_dropShadow_814_105" result="shape"/>
</filter>
<filter id="filter2_d_814_105" x="0" y="13" width="151" height="151" filterUnits="userSpaceOnUse" color-interpolation-filters="sRGB">
<feFlood flood-opacity="0" result="BackgroundImageFix"/>
<feColorMatrix in="SourceAlpha" type="matrix" values="0 0 0 0 0 0 0 0 0 0 0 0 0 0 0 0 0 0 127 0" result="hardAlpha"/>
<feOffset/>
<feGaussianBlur stdDeviation="15"/>
<feComposite in2="hardAlpha" operator="out"/>
<feColorMatrix type="matrix" values="0 0 0 0 0.94902 0 0 0 0 0.6 0 0 0 0 0.290196 0 0 0 1 0"/>
<feBlend mode="normal" in2="BackgroundImageFix" result="effect1_dropShadow_814_105"/>
<feBlend mode="normal" in="SourceGraphic" in2="effect1_dropShadow_814_105" result="shape"/>
</filter>
</defs>
</svg>
